<mxfile host="app.diagrams.net" modified="2021-08-08T10:26:01.621Z" agent="5.0 (Macintosh; Intel Mac OS X 10_14_3) AppleWebKit/537.36 (KHTML, like Gecko) Chrome/92.0.4515.131 Safari/537.36" etag="Rv7e2qZOyBeLCvxHiHOi" version="14.9.5" type="github">
  <diagram id="3228e29e-7158-1315-38df-8450db1d8a1d" name="Page-1">
    <mxGraphModel dx="1033" dy="618" grid="0" gridSize="10" guides="1" tooltips="1" connect="1" arrows="1" fold="1" page="1" pageScale="1" pageWidth="1000" pageHeight="600" background="#EFF1F3" math="0" shadow="0">
      <root>
        <mxCell id="0" />
        <mxCell id="1" parent="0" />
        <mxCell id="_KJd5dzx4qh3lxpyMWcO-2" value="" style="fontColor=#0066CC;verticalAlign=top;verticalLabelPosition=bottom;labelPosition=center;align=center;html=1;outlineConnect=0;gradientColor=none;gradientDirection=north;strokeWidth=2;shape=mxgraph.networks.pc;fillColor=#67AB9F;fontSize=30;" parent="1" vertex="1">
          <mxGeometry x="36.18000000000001" y="727" width="74.65" height="54" as="geometry" />
        </mxCell>
        <mxCell id="T-5VQnCJckOgUX1Wp16H-28" value="客户端" style="text;html=1;strokeColor=none;fillColor=none;align=center;verticalAlign=middle;whiteSpace=wrap;rounded=0;fontSize=22;" parent="1" vertex="1">
          <mxGeometry x="30" y="795" width="96" height="20" as="geometry" />
        </mxCell>
        <mxCell id="aH1-eks404bDhsACtXEq-4" value="&lt;font style=&quot;font-size: 30px&quot;&gt;TCP两次挥手&lt;/font&gt;" style="text;html=1;strokeColor=none;fillColor=none;align=center;verticalAlign=middle;whiteSpace=wrap;rounded=0;" parent="1" vertex="1">
          <mxGeometry x="325" y="645" width="395" height="28" as="geometry" />
        </mxCell>
        <mxCell id="aH1-eks404bDhsACtXEq-7" value="" style="endArrow=none;html=1;strokeWidth=5;" parent="1" edge="1">
          <mxGeometry width="50" height="50" relative="1" as="geometry">
            <mxPoint x="84.91" y="1161" as="sourcePoint" />
            <mxPoint x="84.91" y="858" as="targetPoint" />
          </mxGeometry>
        </mxCell>
        <mxCell id="aH1-eks404bDhsACtXEq-10" value="" style="endArrow=classic;html=1;strokeWidth=5;fontSize=20;strokeColor=#4A919B;" parent="1" edge="1">
          <mxGeometry width="50" height="50" relative="1" as="geometry">
            <mxPoint x="105.41" y="891" as="sourcePoint" />
            <mxPoint x="361.40999999999997" y="906" as="targetPoint" />
          </mxGeometry>
        </mxCell>
        <mxCell id="aH1-eks404bDhsACtXEq-11" value="&lt;font color=&quot;#4a919b&quot;&gt;FIN&lt;/font&gt;" style="text;html=1;strokeColor=none;fillColor=none;align=center;verticalAlign=middle;whiteSpace=wrap;rounded=0;fontSize=20;" parent="1" vertex="1">
          <mxGeometry x="175.41" y="864" width="92" height="21" as="geometry" />
        </mxCell>
        <mxCell id="aH1-eks404bDhsACtXEq-12" value="" style="endArrow=none;html=1;strokeWidth=5;startArrow=classic;startFill=1;endFill=0;strokeColor=#4A919B;" parent="1" edge="1">
          <mxGeometry width="50" height="50" relative="1" as="geometry">
            <mxPoint x="96.41" y="996" as="sourcePoint" />
            <mxPoint x="361.40999999999997" y="927" as="targetPoint" />
          </mxGeometry>
        </mxCell>
        <mxCell id="aH1-eks404bDhsACtXEq-13" value="" style="endArrow=classic;html=1;strokeWidth=5;strokeColor=#535E80;" parent="1" edge="1">
          <mxGeometry width="50" height="50" relative="1" as="geometry">
            <mxPoint x="101.41" y="1120" as="sourcePoint" />
            <mxPoint x="361.40999999999997" y="1139" as="targetPoint" />
          </mxGeometry>
        </mxCell>
        <mxCell id="aH1-eks404bDhsACtXEq-22" value="&lt;font color=&quot;#4a919b&quot;&gt;ACK&lt;/font&gt;" style="text;html=1;strokeColor=none;fillColor=none;align=center;verticalAlign=middle;whiteSpace=wrap;rounded=0;fontSize=20;rotation=-15;" parent="1" vertex="1">
          <mxGeometry x="73" y="935.9200000000001" width="269" height="32" as="geometry" />
        </mxCell>
        <mxCell id="YXoqQ_mGJv7HDvLP6CB5-1" value="" style="endArrow=none;html=1;strokeWidth=5;" parent="1" edge="1">
          <mxGeometry width="50" height="50" relative="1" as="geometry">
            <mxPoint x="370.90999999999997" y="1164" as="sourcePoint" />
            <mxPoint x="370.4100000000001" y="858" as="targetPoint" />
          </mxGeometry>
        </mxCell>
        <mxCell id="CZwPZS3a3ZRwMsVz8uld-1" value="" style="endArrow=none;html=1;strokeWidth=5;startArrow=classic;startFill=1;endFill=0;strokeColor=#535E80;" parent="1" edge="1">
          <mxGeometry width="50" height="50" relative="1" as="geometry">
            <mxPoint x="97.41" y="1100" as="sourcePoint" />
            <mxPoint x="362.40999999999997" y="1031" as="targetPoint" />
          </mxGeometry>
        </mxCell>
        <mxCell id="CZwPZS3a3ZRwMsVz8uld-2" value="&lt;font color=&quot;#535e80&quot;&gt;ACK&lt;/font&gt;" style="text;html=1;fillColor=none;align=center;verticalAlign=middle;whiteSpace=wrap;rounded=0;dashed=1;fontSize=20;rotation=0;" parent="1" vertex="1">
          <mxGeometry x="172.41" y="1105" width="132" height="20" as="geometry" />
        </mxCell>
        <mxCell id="CZwPZS3a3ZRwMsVz8uld-3" value="&lt;font color=&quot;#535e80&quot;&gt;FIN&lt;/font&gt;" style="text;html=1;strokeColor=none;fillColor=none;align=center;verticalAlign=middle;whiteSpace=wrap;rounded=0;fontSize=20;rotation=-15;" parent="1" vertex="1">
          <mxGeometry x="88.91" y="1035" width="269" height="32" as="geometry" />
        </mxCell>
        <mxCell id="6Hhxw88YENzdqIspsL2O-2" value="" style="fontColor=#0066CC;verticalAlign=top;verticalLabelPosition=bottom;labelPosition=center;align=center;html=1;outlineConnect=0;gradientColor=none;gradientDirection=north;strokeWidth=2;shape=mxgraph.networks.pc;fillColor=#67AB9F;fontSize=30;" parent="1" vertex="1">
          <mxGeometry x="610.18" y="733" width="74.65" height="54" as="geometry" />
        </mxCell>
        <mxCell id="6Hhxw88YENzdqIspsL2O-3" value="客户端" style="text;html=1;strokeColor=none;fillColor=none;align=center;verticalAlign=middle;whiteSpace=wrap;rounded=0;fontSize=22;" parent="1" vertex="1">
          <mxGeometry x="601.5" y="800" width="92" height="20" as="geometry" />
        </mxCell>
        <mxCell id="6Hhxw88YENzdqIspsL2O-4" value="" style="fontColor=#0066CC;verticalAlign=top;verticalLabelPosition=bottom;labelPosition=center;align=center;html=1;outlineConnect=0;gradientColor=none;gradientDirection=north;strokeWidth=2;shape=mxgraph.networks.server;fillColor=#535E80;" parent="1" vertex="1">
          <mxGeometry x="347.25" y="722" width="51.5" height="64" as="geometry" />
        </mxCell>
        <mxCell id="6Hhxw88YENzdqIspsL2O-6" value="" style="endArrow=none;html=1;strokeWidth=5;" parent="1" edge="1">
          <mxGeometry width="50" height="50" relative="1" as="geometry">
            <mxPoint x="658.91" y="1091" as="sourcePoint" />
            <mxPoint x="658.91" y="864" as="targetPoint" />
          </mxGeometry>
        </mxCell>
        <mxCell id="6Hhxw88YENzdqIspsL2O-7" value="" style="endArrow=classic;html=1;strokeWidth=5;fontSize=20;strokeColor=#4A919B;" parent="1" edge="1">
          <mxGeometry width="50" height="50" relative="1" as="geometry">
            <mxPoint x="679.41" y="937" as="sourcePoint" />
            <mxPoint x="935.41" y="952" as="targetPoint" />
          </mxGeometry>
        </mxCell>
        <mxCell id="6Hhxw88YENzdqIspsL2O-8" value="&lt;font color=&quot;#4a919b&quot;&gt;FIN&lt;/font&gt;" style="text;html=1;fillColor=none;align=center;verticalAlign=middle;whiteSpace=wrap;rounded=0;fontSize=20;" parent="1" vertex="1">
          <mxGeometry x="749.41" y="910" width="92" height="21" as="geometry" />
        </mxCell>
        <mxCell id="6Hhxw88YENzdqIspsL2O-9" value="" style="endArrow=none;html=1;strokeWidth=5;startArrow=classic;startFill=1;endFill=0;strokeColor=#4A919B;" parent="1" edge="1">
          <mxGeometry width="50" height="50" relative="1" as="geometry">
            <mxPoint x="670.41" y="1035" as="sourcePoint" />
            <mxPoint x="935.41" y="966" as="targetPoint" />
          </mxGeometry>
        </mxCell>
        <mxCell id="6Hhxw88YENzdqIspsL2O-16" value="&lt;font color=&quot;#4a919b&quot;&gt;ACK&lt;/font&gt;" style="text;html=1;fillColor=none;align=center;verticalAlign=middle;whiteSpace=wrap;rounded=0;fontSize=20;rotation=-15;" parent="1" vertex="1">
          <mxGeometry x="647" y="974.9200000000001" width="269" height="32" as="geometry" />
        </mxCell>
        <mxCell id="6Hhxw88YENzdqIspsL2O-17" value="" style="endArrow=none;html=1;strokeWidth=5;" parent="1" edge="1">
          <mxGeometry width="50" height="50" relative="1" as="geometry">
            <mxPoint x="944.9100000000001" y="1094" as="sourcePoint" />
            <mxPoint x="944.4100000000001" y="864" as="targetPoint" />
          </mxGeometry>
        </mxCell>
        <mxCell id="6Hhxw88YENzdqIspsL2O-31" value="" style="shape=flexArrow;endArrow=classic;html=1;strokeColor=none;width=22.285714285714285;endSize=9.142857142857142;fillColor=#535E80;" parent="1" edge="1">
          <mxGeometry width="50" height="50" relative="1" as="geometry">
            <mxPoint x="467" y="985" as="sourcePoint" />
            <mxPoint x="561" y="985" as="targetPoint" />
          </mxGeometry>
        </mxCell>
        <mxCell id="rzCz8ZgORsF8AYzStTLe-2" value="服务端" style="text;html=1;strokeColor=none;fillColor=none;align=center;verticalAlign=middle;whiteSpace=wrap;rounded=0;fontSize=22;" parent="1" vertex="1">
          <mxGeometry x="325" y="793" width="96" height="20" as="geometry" />
        </mxCell>
        <mxCell id="rzCz8ZgORsF8AYzStTLe-5" value="" style="fontColor=#0066CC;verticalAlign=top;verticalLabelPosition=bottom;labelPosition=center;align=center;html=1;outlineConnect=0;gradientColor=none;gradientDirection=north;strokeWidth=2;shape=mxgraph.networks.pc;fillColor=#67AB9F;fontSize=30;" parent="1" vertex="1">
          <mxGeometry x="899" y="732" width="74.65" height="54" as="geometry" />
        </mxCell>
        <mxCell id="rzCz8ZgORsF8AYzStTLe-6" value="客户端" style="text;html=1;strokeColor=none;fillColor=none;align=center;verticalAlign=middle;whiteSpace=wrap;rounded=0;fontSize=22;" parent="1" vertex="1">
          <mxGeometry x="890.3199999999999" y="800" width="92" height="20" as="geometry" />
        </mxCell>
      </root>
    </mxGraphModel>
  </diagram>
</mxfile>
